<svg width="32" height="32" viewBox="0 0 32 32" fill="none" xmlns="http://www.w3.org/2000/svg">
    <path d="M16 4C18.2091 4 20 5.79086 20 8C20 10.2091 18.2091 12 16 12C13.7909 12 12 10.2091 12 8C12 5.79086 13.7909 4 16 4Z" fill="#6B4EFF"/>
    <path d="M21 14H11C7.13401 14 4 17.134 4 21V24C4 25.1046 4.89543 26 6 26H26C27.1046 26 28 25.1046 28 24V21C28 17.134 24.866 14 21 14Z" fill="#6B4EFF"/>
    <path d="M16 7C16.5523 7 17 7.44772 17 8C17 8.55228 16.5523 9 16 9C15.4477 9 15 8.55228 15 8C15 7.44772 15.4477 7 16 7Z" fill="white"/>
</svg> 