<svg width="40" height="40" viewBox="0 0 40 40" fill="none" xmlns="http://www.w3.org/2000/svg">
    <path d="M20 8C23.3137 8 26 10.6863 26 14C26 17.3137 23.3137 20 20 20C16.6863 20 14 17.3137 14 14C14 10.6863 16.6863 8 20 8ZM20 24C26.6274 24 32 26.6863 32 30V32H8V30C8 26.6863 13.3726 24 20 24Z" fill="#6B4EFF"/>
    <path d="M12 14C12 9.58172 15.5817 6 20 6C24.4183 6 28 9.58172 28 14C28 18.4183 24.4183 22 20 22C15.5817 22 12 18.4183 12 14ZM20 8C16.6863 8 14 10.6863 14 14C14 17.3137 16.6863 20 20 20C23.3137 20 26 17.3137 26 14C26 10.6863 23.3137 8 20 8Z" fill="#6B4EFF"/>
    <path d="M8 30C8 25.5817 13.3726 22 20 22C26.6274 22 32 25.5817 32 30V34H8V30ZM10 30V32H30V30C30 26.6863 25.5228 24 20 24C14.4772 24 10 26.6863 10 30Z" fill="#6B4EFF"/>
    <path d="M20 12C21.1046 12 22 12.8954 22 14C22 15.1046 21.1046 16 20 16C18.8954 16 18 15.1046 18 14C18 12.8954 18.8954 12 20 12Z" fill="white"/>
</svg> 